# xmcd
#
# Track frame offsets:
#	150
#	23186
#	46117
#	63350
#	91871
#	106248
#	121325
#	150522
#
# Disc length: 2257 seconds
#
# Revision: 0
# Processed by: cddbd v1.5.2PL0 Copyright (c) Steve Scherf et al.
# Submitted via: dBpowerAMP V4.0
#
DISCID=5508cf08
DTITLE=Tobias Rosa - Esa Bendicion es Mia
DYEAR=1900
DGENRE=Christian-music
TTITLE0=Alguien que me ayude
TTITLE1=Todo era un sueño
TTITLE2=Que descienda
TTITLE3=Esa Bendicion es mia
TTITLE4=Bajando la bendicion
TTITLE5=Dulce Comunion
TTITLE6=Queremos la santidad
TTITLE7=Medley de Coros
EXTD=
EXTT0=
EXTT1=
EXTT2=
EXTT3=
EXTT4=
EXTT5=
EXTT6=
EXTT7=
PLAYORDER=
